<?xml version="1.0" encoding="UTF-8"?> <svg xmlns="http://www.w3.org/2000/svg" xmlns:xlink="http://www.w3.org/1999/xlink" id="Layer_2" viewBox="0 0 144 144"><defs><style>.cls-1{fill:url(#linear-gradient-2);}.cls-2{fill:url(#radial-gradient-7);}.cls-3{fill:url(#radial-gradient-10);}.cls-4{fill:url(#linear-gradient-15);}.cls-5{fill:url(#radial-gradient-20);}.cls-6{fill:url(#linear-gradient-14);}.cls-7{fill:url(#radial-gradient-21);}.cls-8{fill:url(#radial-gradient-8);}.cls-9{fill:url(#linear-gradient-6);}.cls-10{fill:url(#radial-gradient-5);}.cls-11{fill:url(#radial-gradient-4);}.cls-12{fill:url(#linear-gradient-11);}.cls-13{fill:url(#radial-gradient-22);}.cls-14{fill:url(#radial-gradient-6);}.cls-15{fill:url(#radial-gradient-19);}.cls-16{fill:url(#radial-gradient-12);}.cls-17{fill:url(#linear-gradient-10);}.cls-18{fill:url(#radial-gradient);}.cls-19{fill:url(#radial-gradient-13);}.cls-20{fill:url(#linear-gradient-16);stroke:url(#radial-gradient-16);stroke-miterlimit:10;stroke-width:.48px;}.cls-21{fill:url(#linear-gradient-5);}.cls-22{fill:url(#radial-gradient-24);}.cls-23{fill:url(#radial-gradient-15);}.cls-24{clip-path:url(#clippath);}.cls-25{fill:url(#radial-gradient-2);}.cls-26{fill:none;}.cls-27{fill:url(#radial-gradient-3);}.cls-28{fill:url(#linear-gradient-7);}.cls-29{fill:url(#linear-gradient-9);}.cls-30{fill:url(#radial-gradient-17);}.cls-31{fill:url(#radial-gradient-14);}.cls-32{fill:url(#linear-gradient-3);}.cls-33{fill:url(#linear-gradient);}.cls-34{fill:url(#radial-gradient-23);}.cls-35{fill:url(#linear-gradient-4);}.cls-36{fill:url(#radial-gradient-11);}.cls-37{fill:url(#radial-gradient-18);}.cls-38{fill:url(#radial-gradient-9);}.cls-39{fill:url(#linear-gradient-8);}.cls-40{fill:url(#linear-gradient-12);}.cls-41{fill:url(#linear-gradient-13);}</style><clipPath id="clippath"><rect class="cls-26" width="144" height="144"></rect></clipPath><linearGradient id="linear-gradient" x1="46.77" y1="76.78" x2="63.76" y2="76.78" gradientUnits="userSpaceOnUse"><stop offset="0" stop-color="#c3922e"></stop><stop offset=".25" stop-color="#fbc926"></stop><stop offset=".51" stop-color="#eed688"></stop><stop offset=".78" stop-color="#fbc926"></stop><stop offset="1" stop-color="#c3922e"></stop></linearGradient><radialGradient id="radial-gradient" cx="55.27" cy="76.78" fx="55.27" fy="76.78" r="8.53" gradientUnits="userSpaceOnUse"><stop offset="0" stop-color="#c3922e"></stop><stop offset=".47" stop-color="#eed688"></stop><stop offset=".69" stop-color="#ebbb10"></stop><stop offset="1" stop-color="#c3922e"></stop></radialGradient><linearGradient id="linear-gradient-2" x1="107.76" y1="76.78" x2="119.85" y2="76.78" xlink:href="#linear-gradient"></linearGradient><radialGradient id="radial-gradient-2" cx="113.81" cy="76.78" fx="113.81" fy="76.78" r="7.41" xlink:href="#radial-gradient"></radialGradient><linearGradient id="linear-gradient-3" x1="23.9" y1="57.04" x2="34.91" y2="57.04" xlink:href="#linear-gradient"></linearGradient><radialGradient id="radial-gradient-3" cx="29.41" cy="57.04" fx="29.41" fy="57.04" r="7.08" xlink:href="#radial-gradient"></radialGradient><linearGradient id="linear-gradient-4" x1="23.9" y1="76.58" x2="34.91" y2="76.58" xlink:href="#linear-gradient"></linearGradient><radialGradient id="radial-gradient-4" cx="29.4" cy="76.58" fx="29.4" fy="76.58" r="7.07" xlink:href="#radial-gradient"></radialGradient><linearGradient id="linear-gradient-5" x1="115.51" y1="56.97" x2="120.1" y2="56.97" xlink:href="#linear-gradient"></linearGradient><radialGradient id="radial-gradient-5" cx="117.8" cy="56.97" fx="117.8" fy="56.97" r="3.1" xlink:href="#radial-gradient"></radialGradient><linearGradient id="linear-gradient-6" x1="75.86" y1="76.62" x2="91.62" y2="76.62" xlink:href="#linear-gradient"></linearGradient><radialGradient id="radial-gradient-6" cx="83.74" cy="76.62" fx="83.74" fy="76.62" r="8.1" xlink:href="#radial-gradient"></radialGradient><linearGradient id="linear-gradient-7" x1="62.62" y1="57.26" x2="79.63" y2="57.26" xlink:href="#linear-gradient"></linearGradient><radialGradient id="radial-gradient-7" cx="71.12" cy="57.26" fx="71.12" fy="57.26" r="8.55" xlink:href="#radial-gradient"></radialGradient><linearGradient id="linear-gradient-8" x1="93.2" y1="76.58" x2="107.43" y2="76.58" xlink:href="#linear-gradient"></linearGradient><radialGradient id="radial-gradient-8" cx="100.31" cy="76.58" fx="100.31" fy="76.58" r="7.74" xlink:href="#radial-gradient"></radialGradient><linearGradient id="linear-gradient-9" x1="80.86" y1="57.28" x2="94.34" y2="57.28" xlink:href="#linear-gradient"></linearGradient><radialGradient id="radial-gradient-9" cx="87.6" cy="57.28" fx="87.6" fy="57.28" r="7.74" xlink:href="#radial-gradient"></radialGradient><linearGradient id="linear-gradient-10" x1="47.31" y1="57.04" x2="63.88" y2="57.04" xlink:href="#linear-gradient"></linearGradient><radialGradient id="radial-gradient-10" cx="55.6" cy="57.04" fx="55.6" fy="57.04" r="8.32" xlink:href="#radial-gradient"></radialGradient><linearGradient id="linear-gradient-11" x1="36.16" y1="57.08" x2="46.09" y2="57.08" xlink:href="#linear-gradient"></linearGradient><radialGradient id="radial-gradient-11" cx="41.13" cy="57.08" fx="41.13" fy="57.08" r="6.86" xlink:href="#radial-gradient"></radialGradient><linearGradient id="linear-gradient-12" x1="36.16" y1="76.63" x2="46.09" y2="76.63" xlink:href="#linear-gradient"></linearGradient><radialGradient id="radial-gradient-12" cx="41.13" cy="76.63" fx="41.13" fy="76.63" r="6.85" xlink:href="#radial-gradient"></radialGradient><linearGradient id="linear-gradient-13" x1="65.15" y1="76.62" x2="75.03" y2="76.62" xlink:href="#linear-gradient"></linearGradient><radialGradient id="radial-gradient-13" cx="70.09" cy="76.62" fx="70.09" fy="76.62" r="6.84" xlink:href="#radial-gradient"></radialGradient><linearGradient id="linear-gradient-14" x1="106.95" y1="57.11" x2="114.72" y2="57.11" xlink:href="#linear-gradient"></linearGradient><radialGradient id="radial-gradient-14" cx="110.83" cy="57.11" fx="110.83" fy="57.11" r="3.88" xlink:href="#radial-gradient"></radialGradient><linearGradient id="linear-gradient-15" x1="95.94" y1="57.13" x2="105.82" y2="57.13" xlink:href="#linear-gradient"></linearGradient><radialGradient id="radial-gradient-15" cx="100.88" cy="57.13" fx="100.88" fy="57.13" r="6.84" xlink:href="#radial-gradient"></radialGradient><linearGradient id="linear-gradient-16" x1="29.41" y1="103.52" x2="110.83" y2="103.52" xlink:href="#linear-gradient"></linearGradient><radialGradient id="radial-gradient-16" cx="70.12" cy="103.52" fx="70.12" fy="103.52" r="29.49" xlink:href="#radial-gradient"></radialGradient><radialGradient id="radial-gradient-17" cx="44.81" cy="103.77" fx="44.81" fy="103.77" r="3.54" gradientUnits="userSpaceOnUse"><stop offset="0" stop-color="#fbc926"></stop><stop offset="1" stop-color="#c3922e"></stop></radialGradient><radialGradient id="radial-gradient-18" cx="51.67" cy="103.77" fx="51.67" fy="103.77" r="4.03" xlink:href="#radial-gradient-17"></radialGradient><radialGradient id="radial-gradient-19" cx="57.43" fx="57.43" r="3.85" xlink:href="#radial-gradient-17"></radialGradient><radialGradient id="radial-gradient-20" cx="67.26" cy="103.77" fx="67.26" fy="103.77" r="4.02" xlink:href="#radial-gradient-17"></radialGradient><radialGradient id="radial-gradient-21" cx="73.33" fx="73.33" r="3.71" xlink:href="#radial-gradient-17"></radialGradient><radialGradient id="radial-gradient-22" cx="79.92" fx="79.92" r="4.63" xlink:href="#radial-gradient-17"></radialGradient><radialGradient id="radial-gradient-23" cx="87.92" cy="103.77" fx="87.92" fy="103.77" r="4.63" xlink:href="#radial-gradient-17"></radialGradient><radialGradient id="radial-gradient-24" cx="95.06" fx="95.06" r="3.72" xlink:href="#radial-gradient-17"></radialGradient></defs><g id="Layer_1-2"><g class="cls-24"><g><g><g><path class="cls-33" d="M54.12,85.34c-.41-.22-.88-.21-1.32-.35-3.25-1-5.68-4.07-5.99-7.45-.42-4.61,3.04-8.8,7.69-9.28,2.73-.28,5.22,.39,7.24,2.37,.49,.48,.88,1.05,1.22,1.65,.1,.19,.08,.27-.11,.36-.92,.42-1.84,.85-2.75,1.29-.16,.07-.28,.13-.4-.08-1.79-3.19-6.56-2.88-8.38-.11-1.7,2.58-.98,6.12,1.69,7.63,1.88,1.07,4.4,.9,5.92-.73,.39-.42,.66-.91,.85-1.44,.1-.28,.03-.34-.25-.34-1.72,0-3.43,0-5.15,0-.31,0-.41-.04-.24-.36,.41-.8,.8-1.61,1.19-2.42,.1-.21,.22-.29,.45-.29,2.53,0,5.06,.01,7.59,0,.31,0,.36,.1,.37,.38,.06,1.66-.1,3.28-.87,4.78-1.24,2.43-3.26,3.82-5.93,4.3-.07,.01-.15,0-.2,.07h-2.63Z"></path><path class="cls-18" d="M55.67,68.83c2.22,0,4.11,.76,5.64,2.26,.33,.32,.62,.7,.92,1.18-.72,.33-1.43,.67-2.16,1.01-.95-1.46-2.6-2.32-4.47-2.32-1.97,0-3.81,.94-4.8,2.46-.94,1.42-1.24,3.18-.85,4.83,.38,1.58,1.36,2.89,2.75,3.69,.87,.5,1.86,.76,2.87,.76,1.49,0,2.85-.57,3.81-1.6,.42-.45,.74-.98,.98-1.65,.05-.12,.18-.5-.05-.84-.23-.33-.63-.34-.78-.34h0c-.74,0-1.47,0-2.21,0h-.29s-.29,0-.29,0c-.59,0-1.17,0-1.77,0,.28-.57,.57-1.15,.88-1.82,1.25,0,2.51,0,3.76,0,1.16,0,2.32,0,3.51,0,.04,1.73-.22,3.09-.81,4.25-1.13,2.21-2.92,3.51-5.47,3.97-.11,0-.21,.03-.29,.07h-2.3c-.29-.13-.58-.18-.84-.22-.15-.03-.3-.05-.44-.09-2.98-.92-5.27-3.76-5.55-6.91-.39-4.3,2.81-8.16,7.14-8.61,.38-.04,.75-.06,1.1-.06m0-.62c-.38,0-.77,.02-1.17,.06-4.65,.48-8.11,4.67-7.69,9.28,.31,3.38,2.74,6.44,5.99,7.45,.44,.14,.91,.12,1.32,.35h2.63c.05-.08,.13-.06,.2-.07,2.67-.48,4.69-1.86,5.93-4.3,.77-1.5,.93-3.12,.87-4.78-.01-.28-.07-.38-.37-.38,0,0,0,0,0,0-1.25,0-2.5,0-3.75,0s-2.56,0-3.84,0c0,0,0,0,0,0-.23,0-.35,.08-.45,.29-.38,.81-.77,1.62-1.19,2.42-.16,.31-.08,.36,.22,.36,0,0,.01,0,.02,0,.79,0,1.57,0,2.36,0,.19,0,.39,0,.58,0,.74,0,1.47,0,2.21,0,0,0,0,0,0,0,.27,0,.34,.07,.24,.34-.2,.53-.46,1.02-.85,1.44-.89,.95-2.11,1.4-3.36,1.4-.89,0-1.78-.23-2.56-.68-2.67-1.52-3.39-5.05-1.69-7.63,.92-1.41,2.61-2.18,4.28-2.18,1.62,0,3.22,.72,4.1,2.29,.06,.11,.12,.15,.19,.15,.06,0,.13-.03,.21-.07,.92-.43,1.83-.86,2.75-1.29,.2-.09,.22-.18,.11-.36-.34-.6-.73-1.17-1.22-1.65-1.73-1.69-3.8-2.43-6.08-2.43h0Z"></path></g><g><path class="cls-1" d="M112.22,85.34c-.58-.22-1.19-.32-1.76-.59-1.14-.54-2.05-1.32-2.63-2.46-.09-.18-.13-.29,.11-.39,.91-.42,1.81-.85,2.71-1.29,.19-.09,.28-.08,.36,.13,.49,1.23,1.94,1.77,3.13,1.66,.4-.04,.79-.13,1.14-.34,1.15-.67,1.19-2.23,.07-2.93-.65-.4-1.39-.56-2.11-.75-.92-.24-1.84-.47-2.7-.88-1.58-.75-2.35-2-2.46-3.73-.19-3.03,1.84-4.99,4.5-5.43,1.79-.3,3.52-.09,5.08,.94,.79,.53,1.37,1.23,1.78,2.08,.09,.18,.07,.27-.13,.37-.91,.42-1.81,.86-2.7,1.3-.21,.11-.27,.06-.35-.17-.62-1.82-2.69-1.94-3.76-1.3-.98,.59-1.01,2-.06,2.65,.55,.38,1.18,.53,1.81,.71,.94,.26,1.89,.46,2.8,.84,2.02,.85,2.94,2.36,2.81,4.71-.14,2.54-1.86,4.31-4.52,4.8-.08,.02-.18,0-.24,.08h-2.86Z"></path><path class="cls-25" d="M114.02,68.83c1.24,0,2.31,.32,3.28,.96,.58,.39,1.04,.88,1.4,1.53-.67,.32-1.34,.64-2.02,.97-.52-1.06-1.56-1.7-2.82-1.7-.62,0-1.22,.16-1.69,.44-.64,.38-1.03,1.06-1.05,1.8-.02,.75,.33,1.46,.96,1.89,.6,.41,1.25,.59,1.87,.76l.12,.03c.23,.06,.45,.12,.68,.18,.72,.19,1.4,.36,2.04,.64,1.8,.75,2.55,2.02,2.43,4.1-.13,2.24-1.59,3.78-4.02,4.22-.06,0-.17,.02-.29,.07h-2.58c-.23-.08-.46-.15-.68-.21-.33-.1-.64-.19-.92-.32-.97-.46-1.68-1.07-2.18-1.89,.61-.28,1.28-.6,2.05-.98,.66,1.17,2.05,1.7,3.22,1.7,.13,0,.25,0,.37-.02,.54-.05,1-.19,1.4-.42,.74-.43,1.18-1.17,1.2-1.99,.01-.81-.4-1.56-1.11-2-.65-.4-1.34-.58-2.01-.75l-.27-.07-.21-.05c-.84-.22-1.64-.43-2.39-.79-1.34-.63-2.01-1.65-2.11-3.21-.16-2.48,1.4-4.35,3.98-4.78,.47-.08,.92-.12,1.35-.12m0-.62c-.48,0-.96,.04-1.45,.12-2.66,.44-4.69,2.4-4.5,5.43,.11,1.73,.88,2.98,2.46,3.73,.86,.41,1.79,.64,2.7,.88,.72,.19,1.46,.35,2.11,.75,1.12,.7,1.09,2.26-.07,2.93-.35,.21-.74,.3-1.14,.34-.1,0-.21,.01-.32,.01-1.12,0-2.37-.55-2.82-1.67-.05-.13-.1-.18-.18-.18-.05,0-.1,.02-.18,.05-.9,.44-1.8,.87-2.71,1.29-.24,.11-.2,.22-.11,.39,.58,1.14,1.49,1.92,2.63,2.46,.56,.27,1.18,.37,1.76,.59h2.86c.07-.07,.16-.06,.24-.08,2.66-.49,4.37-2.26,4.52-4.8,.13-2.35-.78-3.86-2.81-4.71-.9-.38-1.86-.58-2.8-.84-.63-.17-1.26-.33-1.81-.71-.94-.65-.92-2.06,.06-2.65,.37-.22,.86-.35,1.37-.35,.96,0,1.98,.46,2.38,1.65,.05,.15,.09,.22,.18,.22,.04,0,.1-.02,.17-.05,.9-.44,1.8-.88,2.7-1.3,.2-.09,.22-.18,.13-.37-.41-.85-.99-1.56-1.78-2.08-1.13-.76-2.36-1.07-3.63-1.07h0Z"></path></g><g><path class="cls-32" d="M23.9,48.75c.14-.07,.29-.05,.44-.05,1.18,0,2.36,.01,3.53,0,.35,0,.46,.07,.46,.45-.01,4.17,0,8.35-.02,12.52,0,.39,.11,.47,.48,.46,1.93-.02,3.86,0,5.79-.01,.3,0,.39,.04,.29,.37-.26,.83-.51,1.67-.72,2.52-.08,.31-.19,.41-.52,.41-3.24-.01-6.49,0-9.73,0v-.07c.23-.31,.33-.69,.53-1.02,.24-.41,.31-.84,.31-1.32-.01-3.93-.03-7.86,0-11.79,0-.92-.43-1.63-.85-2.37v-.07Z"></path><path class="cls-27" d="M27.72,49.31c0,1.94,0,3.87,0,5.81,0,2.18,0,4.36-.01,6.53,0,.25,.03,.57,.27,.81,.27,.27,.63,.27,.82,.27,0,0,0,0,.01,0,.92,0,1.83-.01,2.75-.01h.55s.55,0,.55,0c.5,0,1,0,1.5,0-.22,.71-.41,1.39-.58,2.05-1.81,0-3.62,0-5.43,0h-2.1s-1.17,0-1.17,0c.03-.05,.05-.11,.09-.16,.35-.59,.4-1.19,.39-1.64v-.47c-.01-3.71-.03-7.54,0-11.31,0-.73-.21-1.33-.49-1.87h.53s.9,0,.9,0c.47,0,.94,0,1.41,0m.19-.62s-.02,0-.04,0c-.52,0-1.05,.01-1.57,.01-.6,0-1.2,0-1.8,0-.06,0-.11,0-.17,0h0c-.06,0-.11,0-.17,0-.09,0-.18,0-.27,.05v.08c.41,.74,.85,1.44,.85,2.37-.04,3.93-.02,7.86,0,11.79,0,.48-.06,.91-.31,1.32-.2,.33-.3,.71-.53,1.02v.07h.05c1.4,0,2.8,0,4.2,0,1.83,0,3.66,0,5.49,0,0,0,0,0,0,0,.32,0,.44-.1,.51-.41,.21-.85,.46-1.69,.72-2.52,.1-.32,.01-.37-.27-.37,0,0-.01,0-.02,0-.65,0-1.29,0-1.94,0-.37,0-.73,0-1.1,0-.92,0-1.83,0-2.75,.01,0,0-.02,0-.02,0-.35,0-.46-.08-.45-.46,.02-4.17,0-8.35,.02-12.52,0-.36-.1-.45-.43-.45h0Z"></path></g><g><path class="cls-35" d="M23.9,68.24c1.33,0,2.65,.01,3.98,0,.35,0,.46,.07,.46,.44-.02,4.19,0,8.37-.02,12.56,0,.37,.1,.45,.46,.44,1.93-.02,3.86,0,5.79-.02,.31,0,.41,.04,.31,.38-.27,.86-.51,1.72-.74,2.59-.06,.21-.15,.3-.38,.3-3.16,0-6.31,0-9.47,0-.34,0-.37-.1-.21-.36,.57-.88,.69-1.85,.67-2.89-.04-3.67-.02-7.35,0-11.02,0-.46-.05-.88-.29-1.29-.2-.34-.32-.73-.55-1.06v-.07Z"></path><path class="cls-11" d="M27.72,68.86c0,2.04,0,4.08,0,6.12,0,2.08,0,4.17,0,6.25,0,.14,0,.52,.27,.8,.26,.26,.62,.27,.8,.27,0,0,0,0,.01,0,.9,0,1.8,0,2.7,0h.37s.37,0,.37,0c.64,0,1.27,0,1.92,0-.2,.68-.39,1.36-.57,2.02-1.57,0-3.13,0-4.7,0-1.32,0-2.63,0-3.95,0,.4-.9,.45-1.82,.45-2.63-.04-3.22-.02-6.5-.01-9.67v-1.34c0-.45-.04-1.03-.37-1.6-.04-.06-.07-.13-.1-.2h.1s1.08,0,1.08,0c.55,0,1.1,0,1.65,0m.2-.62s-.02,0-.04,0c-.61,0-1.21,.01-1.82,.01-.72,0-1.44,0-2.16,0h0v.07c.23,.33,.35,.71,.55,1.06,.24,.4,.29,.83,.29,1.29-.01,3.67-.03,7.35,0,11.02,.01,1.04-.1,2-.67,2.89-.16,.25-.13,.36,.2,.36,0,0,0,0,0,0,1.53,0,3.06,0,4.59,0,1.62,0,3.25,0,4.87,0,0,0,0,0,0,0,.23,0,.32-.09,.38-.3,.24-.87,.48-1.73,.74-2.59,.1-.33,.01-.38-.29-.38,0,0-.01,0-.02,0-.78,0-1.56,0-2.33,0-.25,0-.5,0-.75,0-.9,0-1.8,0-2.7,0,0,0-.01,0-.02,0-.33,0-.44-.08-.44-.44,.02-4.19,0-8.37,.02-12.56,0-.36-.1-.44-.42-.44h0Z"></path></g><g><polygon class="cls-21" points="120.1 54.97 120.1 53.23 117.36 53.23 117.05 53.23 115.51 53.23 115.51 60.71 117.36 60.71 117.36 58.19 119.33 58.19 119.77 56.53 117.36 56.53 117.36 54.97 120.1 54.97"></polygon><path class="cls-10" d="M119.48,53.85v.5h-2.74v2.8h2.22l-.11,.41h-2.11v2.53h-.62v-6.24h3.36m.62-.62h-4.6v7.48h1.86v-2.53h1.96l.45-1.65h-2.41v-1.56h2.74v-1.74h0Z"></path></g><g><path class="cls-9" d="M75.86,68.32c1.49,0,2.9,0,4.32,0,.21,0,.27,.15,.36,.28,1.79,2.55,3.57,5.1,5.36,7.65,.71,1.01,1.42,2.03,2.2,3.14,0-.23,0-.36,0-.48,0-3.39,0-6.77,0-10.16,0-.35,.09-.44,.43-.43,.91,.02,1.83,.02,2.74,0,.25,0,.35,.05,.35,.32,0,5.32,0,10.65,0,15.97,0,.25-.08,.32-.32,.32-1-.01-2-.01-3.01,0-.25,0-.38-.09-.52-.28-2.43-3.39-4.87-6.78-7.31-10.17-.09-.12-.17-.24-.33-.35v.39c0,3.34,0,6.67,0,10.01,0,.31-.07,.41-.39,.4-.89-.02-1.78-.02-2.67,0-.32,0-.42-.07-.42-.41,.01-3.66,0-7.32,0-10.99,0-1-.01-2,0-3,0-.4-.06-.76-.26-1.11-.19-.33-.34-.69-.54-1.11Z"></path><path class="cls-14" d="M88.72,68.93c.36,0,.73,.01,1.09,.01,.39,0,.78,0,1.19,0,0,5.11,0,10.23,0,15.37-.41,0-.81,0-1.22,0-.49,0-.98,0-1.49,0,0,0,0-.01-.01-.02-2.04-2.84-4.08-5.68-6.12-8.52l-1.19-1.65c-.09-.13-.23-.33-.49-.5l-.97-.65v3.69c0,2.55,0,5.09,0,7.64-.37,0-.74-.01-1.1-.01s-.75,0-1.13,.01c0-2.81,0-5.61,0-8.42v-2.35s0-.86,0-.86c0-.71,0-1.42,0-2.13,.01-.53-.1-1-.34-1.42-.03-.06-.07-.12-.1-.18h.1s1.05,0,1.05,0c.68,0,1.35,0,2.02,0h0s5.36,7.66,5.36,7.66l1.49,2.12,.71,1.02,1.13,1.61v-2.28s0-.17,0-.17v-2.25c0-2.57,0-5.14,0-7.71m-.23-.63c-.31,0-.39,.1-.39,.43,.01,3.39,0,6.77,0,10.16,0,.13,0,.25,0,.48-.78-1.12-1.49-2.13-2.2-3.14-1.79-2.55-3.57-5.1-5.36-7.65-.09-.13-.15-.28-.36-.28,0,0,0,0,0,0-.72,0-1.44,0-2.17,0s-1.41,0-2.14,0c.2,.42,.36,.78,.54,1.11,.2,.35,.27,.71,.26,1.11-.02,1,0,2,0,3,0,3.66,0,7.32,0,10.99,0,.32,.09,.41,.38,.41,.01,0,.03,0,.04,0,.44-.01,.89-.02,1.33-.02,.45,0,.89,0,1.34,.02,.01,0,.02,0,.03,0,.29,0,.36-.11,.36-.4-.01-3.34,0-6.67,0-10.01v-.39c.16,.11,.25,.23,.33,.35,2.44,3.39,4.88,6.78,7.31,10.17,.13,.19,.27,.28,.51,.28,0,0,0,0,.01,0,.5,0,.99-.01,1.49-.01s1.01,0,1.52,0c0,0,0,0,.01,0,.23,0,.31-.07,.31-.32,0-5.32,0-10.65,0-15.97,0-.27-.1-.32-.33-.32,0,0-.01,0-.02,0-.49,0-.98,.01-1.47,.01-.43,0-.85,0-1.28-.02-.01,0-.03,0-.04,0h0Z"></path></g><g><path class="cls-28" d="M75.46,56.33c1.27,0,2.53,0,3.79,0,.28,0,.35,.07,.36,.35,.06,1.6-.08,3.18-.8,4.64-1.29,2.61-3.43,4.08-6.3,4.47-4.18,.57-8.18-1.94-9.48-5.91-1.6-4.88,1.51-10.13,6.58-11.04,2.73-.49,5.25,.04,7.45,1.81,.72,.58,1.28,1.3,1.73,2.1,.12,.21,.09,.28-.12,.38-.93,.43-1.86,.87-2.78,1.31-.13,.06-.22,.12-.33-.06-1.2-1.99-3.04-2.62-5.22-2.22-2.15,.4-3.41,1.85-3.93,3.92-.72,2.86,1.09,5.78,3.97,6.35,2.02,.4,4.23-.38,5.13-2.29,.38-.8,.38-.8-.49-.8-1.59,0-3.18,0-4.77,0-.35,0-.36-.08-.22-.36,.4-.79,.79-1.59,1.17-2.39,.09-.2,.21-.27,.43-.26,1.28,.01,2.56,0,3.83,0Z"></path><path class="cls-2" d="M71.51,49.28c1.92,0,3.65,.62,5.17,1.85,.52,.42,.98,.94,1.38,1.6-.62,.29-1.24,.58-1.86,.88l-.3,.14c-1.03-1.53-2.53-2.33-4.35-2.33-.42,0-.86,.04-1.32,.13-2.28,.42-3.8,1.94-4.42,4.38-.39,1.54-.12,3.2,.73,4.54,.85,1.35,2.17,2.26,3.72,2.57,.38,.08,.77,.12,1.16,.12,2.07,0,3.85-1.05,4.65-2.77,.24-.52,.42-.9,.18-1.28-.24-.39-.65-.39-1.24-.39h-1.26s-1.27,0-1.27,0c-.54,0-1.08,0-1.63,0,.32-.64,.61-1.25,.86-1.77,.6,0,1.21,0,1.81,0h.97s.97,0,.97,0h1s1.01,0,1.01,0c.5,0,1.01,0,1.53,0,.04,1.72-.19,2.99-.74,4.09-1.17,2.37-3.13,3.76-5.83,4.13-.36,.05-.73,.07-1.1,.07-3.52,0-6.62-2.23-7.71-5.56-.71-2.16-.44-4.53,.74-6.51,1.18-1.97,3.13-3.33,5.36-3.73,.61-.11,1.21-.16,1.78-.16m0-.62c-.62,0-1.25,.06-1.89,.17-5.07,.91-8.18,6.16-6.58,11.04,1.18,3.59,4.56,5.99,8.3,5.99,.39,0,.79-.03,1.18-.08,2.87-.39,5.01-1.85,6.3-4.47,.72-1.46,.86-3.03,.8-4.64,0-.27-.08-.35-.34-.35,0,0-.01,0-.02,0-.59,0-1.19,0-1.78,0-.67,0-1.34,0-2.01,0h0c-.64,0-1.29,0-1.93,0s-1.26,0-1.9,0c0,0,0,0,0,0-.21,0-.33,.07-.42,.26-.38,.8-.76,1.6-1.17,2.39-.14,.28-.14,.36,.2,.36,0,0,.01,0,.02,0,.75,0,1.5,0,2.24,0,.84,0,1.69,0,2.53,0h.01c.86,0,.85,0,.48,.8-.74,1.58-2.39,2.39-4.08,2.39-.35,0-.7-.03-1.04-.1-2.87-.58-4.69-3.49-3.97-6.35,.52-2.07,1.78-3.52,3.93-3.92,.41-.08,.82-.12,1.2-.12,1.65,0,3.04,.72,4.01,2.33,.05,.09,.11,.12,.16,.12s.11-.03,.17-.06c.93-.44,1.85-.88,2.78-1.31,.21-.1,.24-.17,.12-.38-.45-.8-1.01-1.52-1.73-2.1-1.68-1.36-3.55-1.98-5.56-1.98h0Z"></path></g><g><path class="cls-39" d="M93.21,76.57c0-2.64,0-5.27,0-7.91,0-.3,.06-.41,.38-.4,1.69,.02,3.38-.03,5.07,.02,3.85,.1,6.87,2.12,8.15,5.25,1.9,4.63-.72,9.79-5.59,11.07-.74,.19-1.49,.31-2.26,.31-1.8,0-3.61,0-5.41,0-.28,0-.35-.07-.35-.35,.01-2.66,0-5.32,0-7.98Zm3.62,.08c0,1.54,0,3.07,0,4.61,0,.14-.08,.35,.21,.34,.85-.03,1.7,.07,2.55-.06,2.28-.35,4.02-2.28,4.14-4.57,.13-2.45-1.36-4.53-3.64-5.13-.96-.25-1.94-.11-2.92-.16-.3-.02-.35,.1-.35,.36,.01,1.54,0,3.07,0,4.61Z"></path><path class="cls-8" d="M96.88,68.87c.59,0,1.17,0,1.76,.02,3.54,.09,6.38,1.91,7.59,4.87,.83,2.02,.75,4.3-.22,6.24-.98,1.97-2.79,3.42-4.95,3.99-.74,.19-1.43,.29-2.1,.29h-1.04s-1.5,0-1.5,0c-.86,0-1.72,0-2.6,0,0-1.98,0-3.95,0-5.93v-1.79s0-1.81,0-1.81c0-1.96,0-3.92,0-5.88,.2,0,.41,0,.61,0,.41,0,.82,0,1.23,0,.41,0,.81,0,1.22,0m.13,13.35h.03s.01,0,.01,0c.12,0,.25,0,.37,0,.17,0,.34,0,.52,0,.18,0,.36,0,.54,0,.32,0,.75,0,1.19-.08,2.57-.39,4.53-2.56,4.67-5.16,.14-2.72-1.55-5.09-4.1-5.76-.59-.15-1.18-.17-1.67-.17-.15,0-.29,0-.44,0-.14,0-.28,0-.42,0-.17,0-.34,0-.51-.01h-.09c-.28,0-.5,.08-.66,.25-.26,.26-.25,.6-.25,.74,0,1.15,0,2.29,0,3.44v1.17s0,.99,0,.99c0,1.21,0,2.41,0,3.65-.01,.13-.04,.43,.2,.68,.11,.11,.3,.25,.61,.25m-.13-13.97c-.82,0-1.63,0-2.45,0-.28,0-.57,0-.85,0,0,0,0,0-.01,0-.31,0-.37,.11-.37,.4,.01,2.64,0,5.27,0,7.91s0,5.32,0,7.98c0,.28,.07,.35,.34,.35,0,0,0,0,.01,0,.96,0,1.92,0,2.87,0,.85,0,1.69,0,2.54,0,0,0,0,0,0,0,.77,0,1.52-.11,2.26-.31,4.87-1.27,7.49-6.44,5.59-11.07-1.29-3.13-4.31-5.15-8.15-5.25-.59-.02-1.18-.02-1.77-.02h0Zm.13,13.35c-.26,0-.19-.2-.19-.34,0-1.54,0-3.07,0-4.61s0-3.07,0-4.61c0-.25,.05-.37,.3-.37,.02,0,.03,0,.05,0,.18,0,.36,.01,.54,.01,.29,0,.57,0,.86,0,.51,0,1.01,.02,1.52,.15,2.28,.6,3.77,2.68,3.64,5.13-.12,2.3-1.86,4.22-4.14,4.57-.36,.06-.73,.07-1.1,.07s-.7-.01-1.06-.01c-.13,0-.26,0-.4,0,0,0-.01,0-.02,0h0Z"></path></g><g><path class="cls-29" d="M80.87,49.04c0-.32,.11-.39,.41-.39,.91,.02,1.89,.05,2.8,.03,.34,0,.44,.08,.44,.43-.02,3.21-.02,6.42-.03,9.63,0,.46,.04,.92,.15,1.37,.34,1.44,1.44,2.3,2.92,2.3,1.48,0,2.59-.88,2.93-2.3,.12-.49,.15-.98,.16-1.49,0-3.19,.02-6.37,0-9.56,0-.34,.1-.41,.42-.41,.99,.02,1.98,.02,2.97,0,.23,0,.3,.07,.29,.3-.03,3.55,0,7.1-.1,10.64-.06,2.29-.98,4.2-3.03,5.41-1.25,.74-2.66,.95-4.09,.87-1.28-.07-2.5-.36-3.57-1.11-1.53-1.07-2.3-2.59-2.59-4.39-.15-.89-.07-1.8-.08-2.69,0-1.09,0-6.87,0-8.65Z"></path><path class="cls-38" d="M81.49,49.28h.37c.52,.02,1.06,.03,1.58,.03,.15,0,.3,0,.45,0-.01,2.15-.02,4.3-.02,6.45v2.99c0,.55,.05,1.05,.16,1.52,.41,1.71,1.75,2.77,3.53,2.77,1.77,0,3.13-1.07,3.54-2.78,.12-.49,.17-1.01,.17-1.63v-3.13c0-2.07,.01-4.14,0-6.22,.4,0,.8,0,1.2,0s.82,0,1.24,0c0,1.05-.01,2.11-.02,3.16,0,2.34-.02,4.76-.08,7.14-.06,2.21-.97,3.86-2.72,4.89-.91,.54-1.97,.8-3.23,.8-.17,0-.34,0-.51-.01-1.32-.07-2.39-.4-3.25-1-1.28-.89-2.04-2.19-2.34-3.98-.1-.59-.09-1.19-.08-1.83,0-.25,0-.51,0-.76,0-.48,0-1.87,0-3.43,0-1.81,0-3.85,0-4.98m-.25-.63c-.28,0-.38,.08-.37,.39,.02,1.79,0,7.57,0,8.65,0,.9-.07,1.8,.08,2.69,.3,1.8,1.06,3.32,2.59,4.39,1.07,.75,2.3,1.04,3.57,1.11,.18,0,.36,.01,.54,.01,1.24,0,2.45-.24,3.55-.89,2.05-1.21,2.97-3.12,3.03-5.41,.09-3.55,.07-7.1,.1-10.64,0-.22-.06-.3-.28-.3,0,0,0,0-.01,0-.52,0-1.05,.01-1.57,.01-.47,0-.93,0-1.4-.01-.01,0-.03,0-.04,0-.29,0-.38,.08-.38,.41,0,3.19,0,6.37,0,9.56,0,.5-.04,1-.16,1.49-.34,1.43-1.46,2.3-2.93,2.3,0,0-.01,0-.02,0-1.48,0-2.56-.86-2.91-2.3-.11-.45-.15-.91-.15-1.37,0-3.21,0-6.42,.03-9.63,0-.34-.09-.43-.4-.43-.01,0-.03,0-.04,0-.21,0-.42,0-.63,0-.72,0-1.46-.02-2.17-.04-.01,0-.02,0-.03,0h0Z"></path></g><g><path class="cls-17" d="M63.88,65.39c-1.21,0-2.37,0-3.54,0-.2,0-.25-.11-.3-.26-.35-.88-.71-1.76-1.04-2.65-.09-.25-.22-.34-.49-.34-2,.01-4.01,.01-6.01,0-.23,0-.35,.06-.43,.29-.32,.89-.69,1.77-1.02,2.66-.08,.23-.2,.29-.43,.29-1-.01-2-.02-3.01,0-.3,0-.36-.04-.24-.34,1.21-2.96,2.41-5.92,3.62-8.87,.69-1.69,1.37-3.38,2.06-5.06,.07-.18,.06-.32-.02-.49-.29-.55-.56-1.12-.85-1.67-.11-.21-.08-.27,.17-.27,1.53,0,3.06,.01,4.58,0,.26,0,.31,.15,.38,.32,1.57,3.9,3.13,7.8,4.7,11.71,.57,1.41,1.14,2.82,1.7,4.24,.05,.13,.1,.25,.17,.44Zm-8.3-12.02c-.72,1.85-1.4,3.61-2.09,5.38-.08,.2-.02,.24,.17,.24,1.25,0,2.51,0,3.76,0,.19,0,.25-.04,.17-.24-.66-1.76-1.32-3.53-2-5.38Z"></path><path class="cls-3" d="M56.77,49.31l4.67,11.64,.86,2.14,.68,1.68h-.01s-.89,0-.89,0c-.51,0-1.01,0-1.51,0l-.3-.77c-.23-.58-.46-1.15-.68-1.74-.18-.49-.54-.74-1.07-.74-1,0-1.99,0-2.99,0s-2.01,0-3.02,0c-.5,0-.84,.24-1.01,.7-.16,.45-.34,.89-.51,1.34-.15,.39-.31,.79-.46,1.2-.48,0-.97,0-1.45,0-.3,0-.6,0-.9,0,.86-2.1,1.72-4.2,2.57-6.31l.83-2.05,.41-1.01c.55-1.35,1.1-2.7,1.65-4.04,.14-.35,.13-.68-.05-1.01-.15-.29-.29-.57-.44-.86-.03-.06-.06-.11-.08-.17,.54,0,1.07,0,1.61,0,.7,0,1.4,0,2.1,0m-3.11,10.31h1.87c.63,0,1.26,0,1.9,0,.12,0,.47,0,.69-.32,.15-.21,.16-.47,.05-.76-.51-1.36-1.01-2.72-1.53-4.11l-.47-1.27-.57-1.53-.59,1.52-.49,1.26c-.54,1.4-1.07,2.76-1.6,4.12-.12,.29-.1,.55,.05,.77,.15,.21,.38,.32,.7,.32m3.28-10.93s0,0,0,0c-.76,0-1.51,.01-2.27,.01s-1.54,0-2.31,0c0,0,0,0,0,0-.24,0-.27,.07-.16,.27,.29,.55,.56,1.12,.85,1.67,.09,.17,.1,.31,.02,.49-.69,1.68-1.38,3.37-2.06,5.06-1.2,2.96-2.4,5.92-3.62,8.87-.12,.29-.07,.34,.2,.34,.01,0,.02,0,.04,0,.48,0,.97-.01,1.45-.01,.52,0,1.04,0,1.56,.01,0,0,.01,0,.02,0,.22,0,.34-.07,.42-.29,.33-.89,.69-1.77,1.02-2.66,.08-.23,.2-.29,.43-.29,0,0,0,0,0,0,1.01,0,2.01,0,3.02,0s2,0,2.99,0c0,0,0,0,0,0,.27,0,.39,.09,.48,.34,.33,.89,.69,1.76,1.04,2.65,.06,.14,.1,.26,.3,.26,0,0,0,0,0,0,.57,0,1.15,0,1.73,0s1.2,0,1.81,0c-.07-.18-.11-.31-.17-.44-.57-1.41-1.14-2.82-1.7-4.24-1.57-3.9-3.13-7.8-4.7-11.71-.07-.17-.12-.32-.37-.32h0Zm-3.28,10.31c-.19,0-.24-.05-.16-.24,.69-1.77,1.38-3.53,2.09-5.38,.69,1.85,1.34,3.62,2,5.38,.07,.2,.01,.24-.17,.24,0,0,0,0,0,0-.63,0-1.26,0-1.9,0s-1.24,0-1.86,0c0,0,0,0,0,0h0Z"></path></g><g><path class="cls-12" d="M36.17,57.09c0-2.62,0-5.25-.01-7.87,0-.39,.12-.47,.49-.47,2.99,.01,5.99,.02,8.98,0,.4,0,.48,.12,.46,.48-.03,.81-.02,1.62,0,2.44,0,.29-.09,.35-.36,.35-1.84-.01-3.68,0-5.52-.01-.31,0-.4,.09-.4,.4,.02,.87,.02,1.75,0,2.62,0,.26,.08,.34,.34,.34,1.68-.01,3.36,0,5.04-.01,.28,0,.37,.04,.28,.34-.25,.82-.47,1.66-.69,2.49-.07,.26-.18,.32-.44,.32-1.39-.01-2.78,0-4.17-.01-.28,0-.36,.07-.36,.35,.02,.97,.02,1.95,0,2.92,0,.29,.1,.35,.37,.35,1.84,0,3.68,.03,5.52,.03,.31,0,.4,.08,.39,.39-.02,.82-.02,1.65,0,2.47,0,.28-.06,.38-.37,.38-3.07-.01-6.14-.01-9.21,0-.29,0-.35-.08-.35-.36,0-2.65,0-5.3,0-7.95Z"></path><path class="cls-36" d="M45.47,49.37c-.02,.61-.02,1.26,0,2.03-.75,0-1.49,0-2.24,0h-.16c-.95,0-1.9,0-2.87,0-.21,0-.52,.03-.75,.27-.24,.24-.26,.55-.25,.76,.02,.78,.02,1.61,0,2.6,0,.11,0,.45,.24,.71,.25,.25,.59,.26,.71,.26h0c.8,0,1.61,0,2.41,0h.09c.69,0,1.38,0,2.08,0-.17,.6-.34,1.23-.52,1.91-.53,0-1.05,0-1.58,0h-.38s-.38,0-.38,0c-.57,0-1.14,0-1.72,0-.2,0-.49,.03-.72,.26-.23,.23-.25,.53-.25,.73,.02,.99,.02,1.97,0,2.9,0,.11,0,.46,.25,.72,.26,.26,.61,.26,.74,.26,.8,0,1.61,0,2.41,.01,.96,0,1.92,.02,2.88,.02-.01,.62-.01,1.28,0,2.01-1.45,0-2.89,0-4.34,0-1.44,0-2.87,0-4.34,0,0-1.97,0-3.94,0-5.92v-1.77s0-1.93,0-1.93c0-1.93,0-3.86-.01-5.79,1.45,0,2.91,.01,4.36,.01s2.88,0,4.33-.01m.17-.62s0,0-.01,0c-1.5,0-2.99,.01-4.49,.01s-3,0-4.49-.01c0,0,0,0-.01,0-.36,0-.48,.08-.47,.47,.02,2.62,.01,5.25,.01,7.87s0,5.3,0,7.95c0,.27,.06,.36,.35,.36,0,0,0,0,0,0,1.54,0,3.07,0,4.61,0s3.07,0,4.6,0c0,0,0,0,0,0,.3,0,.37-.1,.36-.38-.02-.82-.02-1.65,0-2.47,0-.31-.08-.39-.39-.39h0s-.1,0-.15,0c-1.79,0-3.58-.03-5.37-.03-.27,0-.37-.06-.37-.35,.02-.97,.02-1.95,0-2.92,0-.28,.08-.35,.34-.35,0,0,.01,0,.02,0,.57,0,1.14,0,1.71,0,.25,0,.51,0,.76,0,.57,0,1.14,0,1.7,0,0,0,0,0,.01,0,.25,0,.36-.07,.43-.32,.21-.83,.44-1.66,.69-2.49,.09-.3,0-.34-.26-.34,0,0-.01,0-.02,0-.84,0-1.69,0-2.53,0h-.09c-.81,0-1.61,0-2.42,0,0,0,0,0,0,0-.26,0-.33-.07-.33-.34,.02-.87,.02-1.75,0-2.62,0-.31,.08-.4,.38-.4,0,0,0,0,.01,0,.95,0,1.9,0,2.86,0h.16c.84,0,1.67,0,2.51,0,0,0,0,0,0,0,.27,0,.36-.07,.35-.35-.02-.81-.03-1.63,0-2.44,.01-.36-.06-.48-.45-.48h0Z"></path></g><g><path class="cls-40" d="M36.17,76.57c0-2.62,0-5.25,0-7.87,0-.32,.09-.39,.4-.39,3.04,.01,6.09,.01,9.13,0,.3,0,.41,.06,.4,.39-.02,.84-.02,1.67,0,2.51,0,.29-.09,.35-.36,.35-1.84-.01-3.68,0-5.52-.01-.31,0-.41,.07-.4,.39,.02,.87,.02,1.75,0,2.62,0,.31,.1,.37,.38,.37,1.67-.01,3.33,0,5-.01,.29,0,.37,.04,.28,.34-.25,.81-.47,1.63-.68,2.45-.07,.28-.21,.36-.49,.36-1.36-.02-2.73,0-4.1-.01-.32,0-.4,.1-.39,.4,.02,.96,.02,1.92,0,2.89,0,.28,.07,.36,.36,.36,1.8,0,3.61,.02,5.41,.04,.61,0,.5-.05,.51,.53,0,.79,0,1.57,0,2.36,0,.24-.06,.32-.31,.32-3.09,0-6.19,0-9.28,0-.32,0-.33-.15-.33-.39,0-2.66,0-5.32,0-7.98Z"></path><path class="cls-16" d="M45.47,68.93c-.01,.64-.01,1.29,0,2-.78,0-1.56,0-2.33,0-.97,0-1.94,0-2.94,0-.14,0-.49,0-.76,.27-.24,.24-.26,.55-.25,.75,.02,.84,.02,1.71,0,2.59,0,.12-.01,.47,.25,.74,.25,.26,.6,.26,.75,.26h0c.75,0,1.51,0,2.26,0h.27s.27,0,.27,0c.58,0,1.16,0,1.74,0-.17,.6-.35,1.23-.52,1.91-.46,0-.93,0-1.39,0h-.51s-.51,0-.51,0c-.53,0-1.06,0-1.62,0-.12,0-.48,0-.74,.27-.26,.27-.26,.63-.25,.77,.02,.91,.02,1.84,0,2.86,0,.2,.02,.5,.25,.73,.23,.23,.53,.26,.73,.26,1.53,0,3.06,.02,4.59,.03h.71c0,.31,0,.61,0,.92,0,.35,0,.7,0,1.06-1.45,0-2.89,0-4.34,0s-2.88,0-4.34,0c0-2.02,0-4.04,0-6.06v-1.7s0-1.83,0-1.83c0-1.94,0-3.87,0-5.81,1.44,0,2.89,0,4.33,0s2.9,0,4.35,0m.23-.62s0,0,0,0c-1.52,0-3.05,0-4.57,0s-3.04,0-4.56,0c0,0,0,0,0,0-.3,0-.39,.07-.39,.39,.01,2.62,0,5.25,0,7.87s0,5.32,0,7.98c0,.24,0,.39,.32,.39,0,0,0,0,0,0,1.54,0,3.09,0,4.63,0s3.1,0,4.65,0h0c.25,0,.32-.08,.31-.32-.01-.79,0-1.57,0-2.36,0-.58,.1-.52-.51-.53-1.8-.02-3.61-.04-5.41-.04-.28,0-.36-.08-.36-.36,.02-.96,.02-1.92,0-2.89,0-.3,.06-.4,.37-.4,0,0,.01,0,.02,0,.53,0,1.07,0,1.6,0,.34,0,.68,0,1.02,0,.49,0,.98,0,1.47,0,0,0,.01,0,.02,0,.27,0,.41-.08,.48-.36,.21-.82,.43-1.64,.68-2.45,.09-.29,.01-.34-.26-.34,0,0-.01,0-.02,0-.73,0-1.46,0-2.19,0-.18,0-.36,0-.54,0-.76,0-1.51,0-2.27,0,0,0,0,0-.01,0-.28,0-.38-.07-.37-.37,.02-.87,.02-1.75,0-2.62,0-.31,.09-.39,.38-.39,0,0,0,0,.01,0,1.84,.01,3.68,0,5.52,.01,0,0,0,0,.01,0,.26,0,.36-.06,.35-.35-.02-.84-.02-1.67,0-2.51,0-.32-.09-.39-.39-.39h0Z"></path></g><g><path class="cls-41" d="M65.15,76.63c0-2.65,0-5.3,0-7.95,0-.3,.08-.37,.37-.37,3.04,.01,6.09,.01,9.13,0,.29,0,.38,.07,.37,.37-.02,.84-.02,1.67,0,2.51,0,.31-.1,.36-.38,.36-1.84-.01-3.68,0-5.52-.01-.3,0-.41,.06-.4,.38,.02,.86,.02,1.72,0,2.59,0,.34,.1,.41,.43,.41,1.64-.02,3.28,0,4.92-.01,.33,0,.41,.07,.31,.4-.25,.81-.47,1.63-.68,2.45-.06,.25-.18,.31-.41,.3-1.39,0-2.78,0-4.17-.01-.32,0-.4,.09-.39,.4,.02,.95,.02,1.9,0,2.85,0,.31,.08,.4,.4,.4,1.84,0,3.68,.03,5.52,.03,.32,0,.4,.09,.39,.4-.02,.82-.01,1.65,0,2.47,0,.23-.05,.33-.31,.33-3.08,0-6.16-.01-9.24,0-.33,0-.32-.16-.32-.39,0-2.64,0-5.27,0-7.91Z"></path><path class="cls-19" d="M65.77,68.93c1.44,0,2.88,0,4.32,0s2.87,0,4.31,0c-.01,.69-.01,1.34,0,2-.79,0-1.59,0-2.38,0-.96,0-1.93,0-2.91,0-.14,0-.5,0-.76,.27-.26,.27-.25,.63-.25,.75,.02,.87,.02,1.73,0,2.55,0,.12-.01,.5,.25,.77,.26,.27,.62,.27,.79,.27h.01c.69,0,1.39,0,2.08,0h.5s.5,0,.5,0c.48,0,.95,0,1.44,0-.18,.62-.36,1.26-.52,1.91-.35,0-.7,0-1.05,0h-.56s-.56,0-.56,0c-.62,0-1.23,0-1.87,0-.12,0-.48,0-.74,.27-.26,.27-.26,.63-.25,.77,.02,.95,.02,1.9,0,2.82,0,.21,.02,.52,.25,.76,.24,.24,.55,.27,.77,.27,.9,0,1.81,0,2.71,.01,.86,0,1.71,.01,2.57,.01-.01,.66,0,1.31,0,1.96-1.44,0-2.88,0-4.31,0s-2.87,0-4.31,0c0-2,0-4,0-6.01v-1.67s0-1.81,0-1.81c0-1.95,0-3.9,0-5.89m-.25-.62c-.29,0-.37,.08-.37,.37,.01,2.65,0,5.3,0,7.95s0,5.27,0,7.91c0,.23,0,.39,.32,.39,0,0,0,0,0,0,1.54,0,3.07,0,4.61,0s3.09,0,4.63,0c0,0,0,0,0,0,.26,0,.31-.1,.3-.33-.01-.82-.02-1.65,0-2.47,0-.31-.07-.4-.39-.4h0s-.06,0-.09,0c-1.81,0-3.62-.03-5.43-.03h0c-.31,0-.4-.09-.4-.4,.02-.95,.02-1.9,0-2.85,0-.3,.07-.4,.37-.4,0,0,.01,0,.02,0,.62,0,1.24,0,1.86,0,.37,0,.75,0,1.12,0,.4,0,.8,0,1.19,0,0,0,0,0,0,0,.23,0,.34-.05,.41-.3,.2-.82,.43-1.64,.68-2.45,.1-.32,.02-.4-.29-.4,0,0-.01,0-.02,0-.61,0-1.23,0-1.84,0-.33,0-.66,0-.99,0-.69,0-1.39,0-2.09,0,0,0-.01,0-.02,0-.31,0-.42-.08-.41-.41,.02-.86,.02-1.72,0-2.59,0-.32,.1-.38,.39-.38,0,0,0,0,.01,0,1.84,.01,3.68,0,5.52,.01,0,0,0,0,.01,0,.27,0,.38-.05,.37-.36-.02-.84-.02-1.67,0-2.51,0-.3-.08-.37-.37-.37,0,0,0,0,0,0-1.52,0-3.04,0-4.56,0s-3.04,0-4.57,0c0,0,0,0,0,0h0Z"></path></g><g><path class="cls-6" d="M110.84,60.99c-2.18,0-3.89-1.71-3.89-3.9,0-2.14,1.72-3.86,3.86-3.86,2.17,0,3.91,1.7,3.91,3.84,0,2.19-1.7,3.91-3.88,3.92Zm2.08-3.87c0-1.16-.92-2.07-2.07-2.07-1.16,0-2.09,.94-2.08,2.1,0,1.14,.94,2.06,2.1,2.06,1.14,0,2.06-.93,2.06-2.09Z"></path><path class="cls-31" d="M110.81,53.23v.62c1.83,0,3.28,1.42,3.28,3.23,0,.89-.33,1.72-.94,2.34-.61,.61-1.43,.95-2.33,.96-.89,0-1.71-.34-2.31-.95-.61-.61-.94-1.44-.94-2.33,0-1.78,1.45-3.24,3.24-3.24v-.62m.06,6.6h0c.71,0,1.38-.28,1.89-.79,.51-.51,.79-1.2,.79-1.93,0-1.51-1.18-2.69-2.69-2.69-.73,0-1.41,.28-1.92,.8-.51,.52-.79,1.2-.79,1.93,.01,1.48,1.23,2.68,2.71,2.68m-.05-6.6s0,0-.01,0c-2.14,0-3.85,1.72-3.86,3.86,0,2.19,1.7,3.9,3.88,3.9,0,0,0,0,.01,0,2.18,0,3.89-1.73,3.88-3.92,0-2.14-1.74-3.84-3.9-3.84h0Zm.05,5.98c-1.15,0-2.09-.92-2.09-2.06,0-1.17,.92-2.1,2.08-2.1,0,0,0,0,0,0,1.15,0,2.07,.92,2.07,2.07,0,1.16-.92,2.09-2.06,2.09h0Z"></path></g><g><path class="cls-4" d="M95.95,57.14c0-2.65,0-5.3,0-7.95,0-.3,.08-.37,.37-.37,3.04,.01,6.09,.01,9.13,0,.29,0,.38,.07,.37,.37-.02,.84-.02,1.67,0,2.51,0,.31-.1,.36-.38,.36-1.84-.01-3.68,0-5.52-.01-.3,0-.41,.06-.4,.38,.02,.86,.02,1.72,0,2.59,0,.34,.1,.41,.43,.41,1.64-.02,3.28,0,4.92-.01,.33,0,.41,.07,.31,.4-.25,.81-.47,1.63-.68,2.45-.06,.25-.18,.31-.41,.3-1.39,0-2.78,0-4.17-.01-.32,0-.4,.09-.39,.4,.02,.95,.02,1.9,0,2.85,0,.31,.08,.4,.4,.4,1.84,0,3.68,.03,5.52,.03,.32,0,.4,.09,.39,.4-.02,.82-.01,1.65,0,2.47,0,.23-.05,.33-.31,.33-3.08,0-6.16-.01-9.24,0-.33,0-.32-.16-.32-.39,0-2.64,0-5.27,0-7.91Z"></path><path class="cls-23" d="M96.57,49.44c1.44,0,2.88,0,4.32,0s2.87,0,4.31,0c-.01,.69-.01,1.34,0,2-.79,0-1.59,0-2.38,0-.96,0-1.93,0-2.91,0-.14,0-.5,0-.76,.27-.26,.27-.25,.63-.25,.75,.02,.87,.02,1.73,0,2.55,0,.12-.01,.5,.25,.77,.26,.27,.62,.27,.79,.27,0,0,0,0,.01,0,.69,0,1.39,0,2.08,0h.49s.5,0,.5,0c.48,0,.95,0,1.44,0-.18,.62-.36,1.26-.52,1.91-.35,0-.7,0-1.05,0h-.56s-.56,0-.56,0c-.62,0-1.23,0-1.87,0-.12,0-.48,0-.74,.27-.26,.27-.26,.63-.25,.77,.02,.95,.02,1.9,0,2.82,0,.21,.02,.52,.25,.76,.24,.24,.55,.27,.77,.27,.9,0,1.81,0,2.71,.01,.86,0,1.71,.01,2.57,.01-.01,.66,0,1.31,0,1.96-1.44,0-2.87,0-4.31,0s-2.87,0-4.32,0c0-2,0-4.01,0-6.01v-1.67s0-1.81,0-1.81c0-1.95,0-3.9,0-5.89m-.25-.62c-.29,0-.37,.08-.37,.37,.01,2.65,0,5.3,0,7.95s0,5.27,0,7.91c0,.23,0,.39,.32,.39,0,0,0,0,0,0,1.54,0,3.08,0,4.61,0,1.54,0,3.09,0,4.63,0h0c.26,0,.31-.1,.3-.33-.01-.82-.02-1.65,0-2.47,0-.31-.07-.4-.39-.4h0s-.06,0-.09,0c-1.81,0-3.62-.03-5.43-.03h0c-.31,0-.4-.09-.4-.4,.02-.95,.02-1.9,0-2.85,0-.3,.07-.4,.37-.4,0,0,.01,0,.02,0,.62,0,1.24,0,1.86,0,.37,0,.75,0,1.12,0,.4,0,.8,0,1.19,0,0,0,0,0,0,0,.23,0,.34-.05,.4-.3,.2-.82,.43-1.64,.68-2.45,.1-.32,.02-.4-.29-.4,0,0-.01,0-.02,0-.62,0-1.23,0-1.85,0-.33,0-.66,0-.99,0-.7,0-1.39,0-2.09,0,0,0-.01,0-.02,0-.31,0-.42-.08-.41-.41,.02-.86,.02-1.72,0-2.59,0-.32,.1-.38,.39-.38,0,0,0,0,.01,0,1.84,.01,3.68,0,5.52,.01,0,0,0,0,.01,0,.27,0,.38-.05,.37-.36-.02-.84-.02-1.67,0-2.51,0-.3-.08-.37-.37-.37,0,0,0,0,0,0-1.52,0-3.04,0-4.56,0s-3.05,0-4.57,0c0,0,0,0,0,0h0Z"></path></g></g><g><rect class="cls-20" x="29.41" y="95.87" width="81.43" height="15.3" rx="4.91" ry="4.91"></rect><g><g><path d="M44.47,107.47v-5.81h-1.21v-1.59h3.1v7.4h-1.89Z"></path><path class="cls-30" d="M46.36,100.07v7.4h-1.89v-5.81h-1.21v-1.59h3.1m.75-.75h-4.6v3.09h1.21v5.81h3.39v-8.9h0Z"></path></g><g><path d="M52.37,102.23c-.08-.53-.3-.72-.67-.72-.35,0-.65,.25-.65,.58,0,.44,.4,.64,1.21,.99,1.63,.7,2.04,1.29,2.04,2.26,0,1.43-.98,2.27-2.58,2.27s-2.67-.84-2.67-2.43v-.16h1.88c0,.61,.31,1.01,.78,1.01,.39,0,.71-.31,.71-.71,0-.59-.82-.85-1.49-1.12-1.21-.49-1.76-1.13-1.76-2.09,0-1.26,1.22-2.18,2.58-2.18,.49,0,.92,.11,1.31,.31,.79,.41,1.17,1,1.18,1.99h-1.87Z"></path><path class="cls-37" d="M51.75,99.93c.49,0,.92,.11,1.31,.31,.79,.41,1.17,1,1.18,1.99h-1.87c-.08-.53-.3-.72-.67-.72-.35,0-.65,.25-.65,.58,0,.44,.4,.64,1.21,.99,1.63,.7,2.04,1.29,2.04,2.26,0,1.43-.98,2.27-2.58,2.27s-2.67-.84-2.67-2.43v-.16h1.88c0,.61,.31,1.01,.78,1.01,.39,0,.71-.31,.71-.71,0-.59-.82-.85-1.49-1.12-1.21-.49-1.76-1.13-1.76-2.09,0-1.26,1.22-2.18,2.58-2.18m0-.75c-1.84,0-3.33,1.31-3.33,2.93,0,.89,.36,1.6,1.09,2.16h-1.21v.91c0,1.93,1.34,3.18,3.42,3.18s3.33-1.18,3.33-3.02c0-1.12-.49-1.81-1.34-2.36h1.29v-.76c-.02-1.23-.54-2.1-1.59-2.65-.51-.26-1.07-.39-1.65-.39h0Z"></path></g><g><path d="M56.49,107.47v-5.74h-1.46v-1.66h4.8v1.66h-1.45v5.74h-1.89Z"></path><path class="cls-15" d="M59.83,100.07v1.66h-1.45v5.74h-1.89v-5.74h-1.46v-1.66h4.8m.75-.75h-6.3v3.16h1.46v5.74h3.39v-5.74h1.45v-3.16h0Z"></path></g><g><path d="M64.48,107.47v-7.4h2.5c.79-.01,1.38,.1,1.77,.28,.8,.37,1.3,1.22,1.3,2.22,0,1.37-.76,2.58-2.88,2.58h-.88v2.32h-1.81Zm2.62-3.98c.76,0,1.14-.26,1.14-.89s-.37-.87-1.21-.87h-.74v1.76h.81Z"></path><path class="cls-5" d="M67.08,100.07c.74,0,1.29,.11,1.66,.28,.8,.37,1.3,1.22,1.3,2.22,0,1.37-.76,2.58-2.88,2.58h-.88v2.32h-1.81v-7.4h2.5s.07,0,.1,0m-.79,3.42h.81c.76,0,1.14-.26,1.14-.89s-.37-.87-1.21-.87h-.74v1.76m.79-4.17h-.12s-2.49,0-2.49,0h-.75v8.9h3.31v-2.32h.13c2.67,0,3.63-1.72,3.63-3.33,0-1.29-.66-2.4-1.73-2.9-.5-.23-1.17-.35-1.98-.35h0Zm-.04,3.42v-.26c.28,0,.4,.04,.45,.06,0,.01,0,.03,0,.06,0,.06,0,.09,0,.11,0,0,0,0,0,0-.02,0-.13,.04-.38,.04h-.06Z"></path></g><g><path d="M71.29,107.47v-7.4h1.89v5.74h2.19v1.66h-4.08Z"></path><path class="cls-7" d="M73.18,100.07v5.74h2.19v1.66h-4.08v-7.4h1.89m.75-.75h-3.39v8.9h5.58v-3.16h-2.19v-5.74h0Z"></path></g><g><path d="M81.58,107.47l-.36-1.07h-2.57l-.39,1.07h-2.03l2.97-7.4h1.49l2.94,7.4h-2.05Zm-1.62-5.09h-.03s-.76,2.52-.76,2.52h1.55l-.76-2.52Z"></path><path class="cls-13" d="M80.69,100.07l2.94,7.4h-2.05l-.36-1.07h-2.57l-.39,1.07h-2.03l2.97-7.4h1.49m-1.52,4.83h1.55l-.76-2.52h-.03s-.76,2.52-.76,2.52m2.03-5.58h-2.51l-.19,.47-2.97,7.4-.41,1.03h3.66l.18-.49,.21-.58h1.5l.19,.56,.17,.51h3.69l-.41-1.03-2.94-7.4-.19-.47h0Z"></path></g><g><path d="M89.65,102.88c-.32-.81-1.02-1.29-1.79-1.29-1.18,0-1.98,1.01-1.98,2.16s.82,2.2,1.99,2.2c.75,0,1.39-.42,1.78-1.25h1.98c-.46,1.78-1.99,2.91-3.74,2.91-1.03,0-2-.36-2.76-1.11-.8-.78-1.14-1.72-1.14-2.84,0-1.96,1.69-3.73,3.81-3.73,1.02,0,1.84,.28,2.58,.91,.7,.6,1.12,1.28,1.25,2.04h-1.98Z"></path><path class="cls-34" d="M87.8,99.93c1.02,0,1.84,.28,2.58,.91,.7,.6,1.12,1.28,1.25,2.04h-1.98c-.32-.81-1.02-1.29-1.79-1.29-1.18,0-1.98,1.01-1.98,2.16s.82,2.2,1.99,2.2c.75,0,1.39-.42,1.78-1.25h1.98c-.46,1.78-1.99,2.91-3.74,2.91-1.03,0-2-.36-2.76-1.11-.8-.78-1.14-1.72-1.14-2.84,0-1.96,1.69-3.73,3.81-3.73m0-.75c-2.47,0-4.56,2.05-4.56,4.48,0,1.38,.45,2.48,1.37,3.38,.87,.86,2.01,1.32,3.28,1.32,2.13,0,3.93-1.39,4.46-3.47l.24-.94h-3.42l-.2,.43c-.26,.54-.63,.82-1.1,.82-.8,0-1.24-.75-1.24-1.45s.43-1.41,1.23-1.41c.47,0,.89,.31,1.09,.81l.19,.47h3.38l-.15-.88c-.16-.93-.66-1.76-1.5-2.48-.87-.74-1.85-1.09-3.07-1.09h0Z"></path></g><g><path d="M93.01,107.47v-7.4h4.11v1.66h-2.3v1.15h2.23v1.66h-2.23v1.27h2.3v1.66h-4.11Z"></path><path class="cls-22" d="M97.12,100.07v1.66h-2.3v1.15h2.23v1.66h-2.23v1.27h2.3v1.66h-4.11v-7.4h4.11m.75-.75h-5.61v8.9h5.61v-3.16h-.07v-2.58h.07v-3.16h0Z"></path></g></g></g></g></g></g></svg> 