<svg width="30" height="32" viewBox="0 0 30 32" fill="none" xmlns="http://www.w3.org/2000/svg">
<path d="M25.9922 0C27.8748 0 29.391 1.47006 29.4803 3.20194V31.0303L25.8978 28.0912L23.9319 26.3641L21.7822 24.5556L22.6768 27.4046H3.88692C2.00934 27.4046 0.48819 26.0305 0.48819 24.2027V3.20776C0.48819 1.47588 2.01034 0.00581818 3.89294 0.00581818H25.9822L25.9922 0ZM17.8021 7.34836H17.76L17.4879 7.6063C20.2651 8.384 21.6085 9.59612 21.6085 9.59612C19.8203 8.73212 18.2038 8.2977 16.5933 8.12121C15.4326 7.94958 14.2659 8.04073 13.2829 8.12121H13.0108C12.3832 8.12121 11.0448 8.384 9.25059 9.07539C8.62807 9.33818 8.26762 9.50982 8.26762 9.50982C8.26762 9.50982 9.60603 8.21139 12.566 7.52L12.3832 7.34836C12.3832 7.34836 10.1452 7.26206 7.72944 8.99006C7.72944 8.99006 5.31368 13.056 5.31368 18.0655C5.31368 18.0655 6.65209 20.3132 10.3239 20.3985C10.3239 20.3985 10.8621 19.712 11.4013 19.1059C9.34095 18.4999 8.5357 17.2878 8.5357 17.2878C8.5357 17.2878 8.71844 17.3741 8.98552 17.5457H9.06384C9.10601 17.5457 9.12709 17.5661 9.14717 17.5864V17.5961C9.16826 17.6165 9.18934 17.631 9.22549 17.631C9.67029 17.8075 10.1091 17.9792 10.4705 18.1508C11.0981 18.4087 11.8983 18.6705 12.8813 18.8432C14.1263 19.0196 15.5531 19.1011 17.1796 18.8432C17.9799 18.6667 18.7851 18.4999 19.5904 18.1508C20.1085 17.8928 20.7511 17.6359 21.4569 17.1966C21.4569 17.1966 20.6567 18.4087 18.507 19.0148C18.9468 19.616 19.5683 20.3074 19.5683 20.3074C23.2441 20.2269 24.6719 17.9792 24.7502 18.0752C24.7502 13.0705 22.3184 8.99976 22.3184 8.99976C20.1326 7.42885 18.0823 7.36873 17.7218 7.36873L17.7951 7.34352L17.8021 7.34836ZM18.027 13.056C18.9689 13.056 19.7269 13.8288 19.7269 14.7782C19.7269 15.7382 18.9638 16.5101 18.027 16.5101C17.0852 16.5101 16.3272 15.7372 16.3272 14.7879C16.3272 13.8279 17.0903 13.056 18.027 13.056ZM11.9455 13.056C12.8813 13.056 13.6403 13.8288 13.6403 14.7782C13.6403 15.7382 12.8772 16.5101 11.9405 16.5101C10.9987 16.5101 10.2356 15.7372 10.2356 14.7879C10.2356 13.8279 10.9987 13.056 11.9405 13.056H11.9455Z" fill="white"/>
</svg>
