<svg width="16" height="13" viewBox="0 0 16 13" fill="none" xmlns="http://www.w3.org/2000/svg">
<path d="M15.9177 1.54448C15.3311 1.80164 14.7032 1.97856 14.0413 2.0588C14.7166 1.65362 15.233 1.01271 15.4792 0.24919C14.8457 0.61799 14.145 0.885121 13.3999 1.03613C12.8059 0.400198 11.9566 0 11.0142 0C9.20755 0 7.74332 1.46374 7.74332 3.26787C7.74332 3.52753 7.77471 3.77672 7.82904 4.01295C5.11138 3.88586 2.70221 2.58011 1.09095 0.607524C0.807872 1.08796 0.646896 1.64615 0.646896 2.25367C0.646896 3.39047 1.22551 4.38723 2.10017 4.97332C1.56541 4.95788 1.06205 4.80986 0.62098 4.56615V4.60552C0.62098 6.19086 1.74732 7.51257 3.24245 7.81359C2.96984 7.88585 2.67879 7.92772 2.38325 7.92772C2.17343 7.92772 1.97308 7.90728 1.77323 7.8704C2.19386 9.16818 3.39795 10.1131 4.83328 10.1415C3.71741 11.0162 2.30301 11.5375 0.778966 11.5375C0.519311 11.5375 0.260154 11.525 0 11.4936C1.45377 12.4206 3.16969 12.9628 5.02316 12.9628C11.0371 12.9628 14.3234 7.98154 14.3234 3.66757C14.3234 3.53002 14.3234 3.38997 14.3129 3.24943C14.9544 2.79242 15.5096 2.2133 15.9481 1.55694L15.9177 1.54448Z" fill="white"/>
</svg>
