<svg width="38" height="25" viewBox="0 0 38 25" fill="none" xmlns="http://www.w3.org/2000/svg">
<path d="M36.2859 3.81756C35.8503 2.32399 34.6443 1.1526 33.0909 0.738518C30.2306 3.5306e-05 18.7322 3.54845e-05 18.7322 3.54845e-05C18.7322 3.54845e-05 7.25563 -0.0176794 4.36556 0.738518C2.82021 1.15371 1.60846 2.32399 1.17742 3.81756C0.635169 6.64859 0.365765 9.51395 0.378376 12.3926C0.372644 15.2524 0.640901 18.1133 1.17742 20.9267C1.60846 22.4202 2.82021 23.5916 4.36556 24.0123C7.22583 24.7508 18.7322 24.7508 18.7322 24.7508C18.7322 24.7508 30.202 24.7508 33.0909 24.0123C34.6443 23.5916 35.8503 22.4213 36.2859 20.9267C36.8121 18.1133 37.0689 15.2524 37.0506 12.3926C37.0689 9.51395 36.8179 6.64859 36.2859 3.81756ZM15.0592 17.6926V7.06932L24.6305 12.3926L15.0592 17.6926Z" fill="white"/>
</svg>
